<svg width="240" height="360" xmlns="http://www.w3.org/2000/svg" version="1.0">
 <g class="layer">
  <title>Layer 1</title>
  <g transform="rotate(28.7224, 119.382, 184)" stroke-width="3" stroke="#000000" id="g3273">
   <path stroke="#000000" id="path2500" fill="#47585c" d="m100.53093,300.29068c3.18,0 41.27,0 41.27,0c-9.16,-4.17 -20.16,-29.9 -19.38,-42.86l-6.01,0c-0.2,14.28 -2.99,28.57 -15.88,42.86z"/>
   <g id="g2493">
    <path transform="rotate(-45, 119.111, 183.114)" stroke="#000000" id="path5716" fill="#47585c" d="m222.00093,77.42068c-3.92,-3.9 -10.1,-5.43 -16.72,-2.92c0,0 -13.81,5.44 -23.6,8.96c-3.68,1.32 -10.75,6.43 -13.92,9.24c-3.37,2.97 -137.28,138.85 -138.82,141.3c-1.7,2.75 -6.69,8.88 -8.55,13.1c-4.12,9.37 -8.24,24.8 -8.24,24.79c-2.08,10.08 8.65,24.14 20.44,20.45c0,0 21.35,-7.27 23.93,-8.49c2.25,-1.07 8.19,-4.38 11.05,-6.66c2.69,-2.14 137.08,-141.06 140.89,-145.25c3.42,-3.75 6.39,-9.83 8.22,-13.45c4.65,-9.14 8.6,-24.02 8.6,-24.02c2.34,-6.92 0.65,-13.17 -3.27,-17.06l-0.01,0.01zm-27.73,28.68c5.44,5.37 8.73,13.1 4.13,17.86l-139.02,140.78c-10.7,10.51 -29.41,-9.77 -20.39,-20.89l138.22,-141.6c4.01,-4.56 11.62,-1.53 17.06,3.85z"/>
    <path transform="rotate(-45, 117.417, 39.1907)" stroke="#000000" id="path5720" fill="#47585c" d="m102.44093,33.67068l25.73,-9.13c2.1,-1.1 5.11,1.06 3.99,3.69l-9.28,25.9c2.45,-7.15 -12.77,-22.29 -20.44,-20.46z"/>
    <path transform="rotate(-45, 120.925, 328.047)" stroke="#000000" id="path5722" fill="#47585c" d="m135.77093,333.34068l-26.83,9.51c-2.18,0.89 -3.25,0.17 -2.75,-2.51l9.14,-27.46c-1.91,8.03 12.97,22.43 20.44,20.46z"/>
    <path transform="rotate(-45, 118.693, 182.986)" stroke="#000000" id="path5724" fill="#47585c" d="m64.87093,230.26068c-11.47,14.52 -6.44,18.12 7.4,7.58c14.2,-10.82 17.21,-12.84 49.42,-45.34c32.49,-32.78 34.4,-37.39 49.06,-53.81c14.92,-16.69 7.57,-23.11 -8.25,-8.45c-15.54,14.39 -19.43,15.29 -52,49.08c-32.28,33.5 -34.6,36.96 -45.63,50.94z"/>
   </g>
  </g>
 </g>

</svg>