<svg width="24" height="24" viewBox="0 0 24 24" fill="none" xmlns="http://www.w3.org/2000/svg">
<path d="M12 0C5.241 0 0 4.95286 0 11.6397C0 15.1376 1.434 18.1615 3.768 20.2494C3.963 20.4234 4.083 20.6694 4.089 20.9334L4.155 23.0694C4.15981 23.2265 4.20314 23.3801 4.2812 23.5166C4.35926 23.6531 4.46965 23.7683 4.60267 23.8521C4.73569 23.936 4.88726 23.9859 5.04408 23.9974C5.20089 24.009 5.35814 23.9818 5.502 23.9183L7.884 22.8684C8.085 22.7784 8.313 22.7634 8.526 22.8204C9.621 23.1204 10.785 23.2824 12 23.2824C18.759 23.2824 24 18.3295 24 11.6427C24 4.95586 18.759 0 12 0Z" fill="#47585C"/>
<path d="M4.79413 15.0447L8.31913 9.45281C8.45174 9.24228 8.62655 9.06153 8.83254 8.92197C9.03853 8.7824 9.27121 8.68706 9.5159 8.64196C9.7606 8.59685 10.012 8.60297 10.2542 8.65992C10.4964 8.71687 10.7242 8.82341 10.9231 8.97283L13.7281 11.0758C13.8534 11.1695 14.0057 11.2199 14.1621 11.2194C14.3186 11.2189 14.4706 11.1674 14.5951 11.0728L18.3811 8.19885C18.8851 7.81486 19.5451 8.42084 19.2091 8.95783L15.6811 14.5467C15.5485 14.7572 15.3737 14.938 15.1677 15.0775C14.9617 15.2171 14.7291 15.3124 14.4844 15.3575C14.2397 15.4026 13.9883 15.3965 13.7461 15.3396C13.5039 15.2826 13.2761 15.1761 13.0771 15.0267L10.2721 12.9237C10.1469 12.83 9.99456 12.7795 9.83813 12.7801C9.6817 12.7806 9.52971 12.8321 9.40513 12.9267L5.61913 15.8006C5.11513 16.1846 4.45513 15.5816 4.79413 15.0447Z" fill="white"/>
</svg>
